<svg width="156" height="35" viewBox="0 0 156 35" fill="none" xmlns="http://www.w3.org/2000/svg">
<path d="M52.526 26V9.568H47.846V7.254H55.516V26H52.526ZM47.846 26V23.738H59.884V26H47.846ZM69.4158 26.26C67.9772 26.26 66.7898 25.9913 65.8538 25.454C64.9178 24.8993 64.2245 24.128 63.7738 23.14C63.3232 22.1347 63.0978 20.9733 63.0978 19.656V19.058C63.0978 17.706 63.3578 16.536 63.8778 15.548C64.3978 14.56 65.1345 13.7973 66.0878 13.26C67.0585 12.7227 68.2025 12.454 69.5198 12.454C70.7505 12.454 71.8078 12.6967 72.6918 13.182C73.5758 13.6673 74.2605 14.3347 74.7458 15.184C75.2312 16.016 75.4738 16.9867 75.4738 18.096V19.89H66.2698V20.41C66.2698 21.658 66.5732 22.6027 67.1798 23.244C67.7865 23.8853 68.5578 24.206 69.4938 24.206C70.5165 24.206 71.2965 23.9547 71.8338 23.452C72.3712 22.9493 72.6398 22.178 72.6398 21.138H75.4738C75.4738 22.1953 75.2225 23.114 74.7198 23.894C74.2172 24.6567 73.5152 25.246 72.6138 25.662C71.7125 26.0607 70.6465 26.26 69.4158 26.26ZM66.2958 18.044H72.5098V17.654C72.5098 17.0473 72.3798 16.51 72.1198 16.042C71.8772 15.574 71.5218 15.2013 71.0538 14.924C70.6032 14.6467 70.0745 14.508 69.4678 14.508C68.7918 14.508 68.2198 14.6727 67.7518 15.002C67.2838 15.3313 66.9198 15.756 66.6598 16.276C66.4172 16.796 66.2958 17.3333 66.2958 17.888V18.044ZM87.3977 26.26C85.7684 26.26 84.4857 25.9133 83.5497 25.22C82.6137 24.5093 82.1457 23.3393 82.1457 21.71V15.028H78.4017V12.714H82.2497L83.2897 8.476H85.1617V12.714H91.0377V15.028H85.1617V21.45C85.1617 22.0047 85.2744 22.4727 85.4997 22.854C85.725 23.218 86.063 23.4867 86.5137 23.66C86.9817 23.8333 87.571 23.92 88.2817 23.92C88.819 23.92 89.3217 23.8507 89.7897 23.712C90.275 23.5733 90.691 23.4173 91.0377 23.244V25.506C90.6044 25.7487 90.0497 25.9307 89.3737 26.052C88.715 26.1907 88.0564 26.26 87.3977 26.26Z" fill="#AFAFAF"/>
<path d="M100.336 26.26C99.2262 26.26 98.2382 26.1127 97.3715 25.818C96.5222 25.506 95.8549 25.064 95.3695 24.492C94.8842 23.9027 94.6415 23.192 94.6415 22.36C94.6415 22.308 94.6415 22.2387 94.6415 22.152C94.6415 22.048 94.6502 21.9353 94.6675 21.814H97.2415V22.048C97.2415 22.724 97.5362 23.2527 98.1255 23.634C98.7149 24.0153 99.5642 24.206 100.674 24.206C101.696 24.206 102.459 24.0413 102.962 23.712C103.464 23.3653 103.716 22.9147 103.716 22.36C103.716 21.996 103.612 21.7013 103.404 21.476C103.196 21.2333 102.806 21.0253 102.234 20.852C101.662 20.6787 100.821 20.5053 99.7115 20.332C98.5675 20.1413 97.6402 19.89 96.9295 19.578C96.2189 19.266 95.6989 18.8587 95.3695 18.356C95.0575 17.8533 94.9015 17.2207 94.9015 16.458C94.9015 15.5567 95.1442 14.8113 95.6295 14.222C96.1149 13.6327 96.7909 13.1907 97.6575 12.896C98.5242 12.6013 99.5295 12.454 100.674 12.454C101.679 12.454 102.58 12.6013 103.378 12.896C104.192 13.1907 104.842 13.6067 105.328 14.144C105.813 14.664 106.056 15.2967 106.056 16.042C106.056 16.094 106.056 16.1633 106.056 16.25C106.056 16.3193 106.038 16.4147 106.004 16.536H103.404C103.404 15.9813 103.274 15.5567 103.014 15.262C102.754 14.9673 102.398 14.768 101.948 14.664C101.514 14.5427 101.02 14.482 100.466 14.482C98.5935 14.482 97.6575 15.0453 97.6575 16.172C97.6575 16.484 97.7529 16.744 97.9435 16.952C98.1515 17.1427 98.5242 17.316 99.0615 17.472C99.5989 17.628 100.379 17.8013 101.402 17.992C102.65 18.2 103.646 18.4687 104.392 18.798C105.137 19.11 105.674 19.526 106.004 20.046C106.333 20.566 106.498 21.242 106.498 22.074C106.498 23.0447 106.246 23.842 105.744 24.466C105.258 25.0727 104.556 25.5233 103.638 25.818C102.719 26.1127 101.618 26.26 100.336 26.26ZM112.571 30.836C112.173 30.836 111.8 30.8013 111.453 30.732C111.124 30.68 110.812 30.5933 110.517 30.472V28.314C110.708 28.4007 110.959 28.4787 111.271 28.548C111.583 28.6347 111.887 28.678 112.181 28.678C112.667 28.678 113.048 28.5653 113.325 28.34C113.603 28.132 113.837 27.8113 114.027 27.378C114.235 26.9447 114.469 26.39 114.729 25.714L109.607 12.714H112.857L116.263 22.048H116.419L119.721 12.714H122.711L117.797 25.402C117.416 26.4073 116.991 27.3173 116.523 28.132C116.073 28.964 115.527 29.6227 114.885 30.108C114.261 30.5933 113.49 30.836 112.571 30.836ZM126.055 26V12.714H128.499L128.785 14.508C129.184 13.7973 129.739 13.2773 130.449 12.948C131.16 12.6187 131.957 12.454 132.841 12.454C134.28 12.454 135.424 12.8613 136.273 13.676C137.14 14.4733 137.573 15.6433 137.573 17.186V26H134.531V17.966C134.531 16.8567 134.297 16.042 133.829 15.522C133.379 15.002 132.737 14.742 131.905 14.742C131.333 14.742 130.831 14.8893 130.397 15.184C129.981 15.4613 129.652 15.8513 129.409 16.354C129.184 16.8567 129.071 17.4373 129.071 18.096V26H126.055ZM147.027 26.26C146.195 26.26 145.415 26.104 144.687 25.792C143.959 25.48 143.318 25.038 142.763 24.466C142.226 23.8767 141.801 23.1833 141.489 22.386C141.194 21.5887 141.047 20.696 141.047 19.708V19.006C141.047 18.018 141.194 17.1253 141.489 16.328C141.801 15.5307 142.226 14.846 142.763 14.274C143.318 13.6847 143.959 13.234 144.687 12.922C145.415 12.61 146.204 12.454 147.053 12.454H147.443C148.552 12.454 149.523 12.6793 150.355 13.13C151.187 13.5807 151.837 14.2133 152.305 15.028C152.773 15.8427 153.007 16.8133 153.007 17.94H150.329C150.329 17.1253 150.199 16.4667 149.939 15.964C149.696 15.4613 149.35 15.0973 148.899 14.872C148.466 14.6293 147.946 14.508 147.339 14.508C146.472 14.508 145.736 14.82 145.129 15.444C144.54 16.068 144.245 17.0213 144.245 18.304V20.41C144.245 21.6407 144.531 22.5853 145.103 23.244C145.692 23.8853 146.464 24.206 147.417 24.206C148.006 24.206 148.518 24.0933 148.951 23.868C149.402 23.6253 149.748 23.2527 149.991 22.75C150.234 22.2473 150.355 21.5887 150.355 20.774H153.007C153.007 21.9353 152.764 22.932 152.279 23.764C151.811 24.5787 151.152 25.2027 150.303 25.636C149.471 26.052 148.509 26.26 147.417 26.26H147.027Z" fill="white"/>
<rect x="14" y="10" width="24" height="25" rx="5" fill="#00B2DA"/>
<rect width="24" height="24" rx="5" fill="#00B365"/>
<rect x="7" y="5" width="24" height="24" rx="5" fill="white" fill-opacity="0.8"/>
</svg>
